<mxfile host="app.diagrams.net" agent="Mozilla/5.0 (X11; Linux x86_64) AppleWebKit/537.36 (KHTML, like Gecko) Chrome/112.0.0.0 Safari/537.36" version="24.7.4">
  <diagram name="Page-1" id="cWaFsF2mOiUDxualvjen">
    <mxGraphModel dx="2284" dy="799" grid="1" gridSize="10" guides="1" tooltips="1" connect="1" arrows="1" fold="1" page="1" pageScale="1" pageWidth="850" pageHeight="1100" math="0" shadow="0">
      <root>
        <mxCell id="0" />
        <mxCell id="1" parent="0" />
        <mxCell id="ehsIQFj1LvC2KEdBpazL-1" value="1970s" style="shape=step;perimeter=stepPerimeter;whiteSpace=wrap;html=1;fixedSize=1;fontSize=21;fillColor=#dae8fc;strokeColor=#6c8ebf;" vertex="1" parent="1">
          <mxGeometry x="-30" y="310" width="140" height="80" as="geometry" />
        </mxCell>
        <mxCell id="ehsIQFj1LvC2KEdBpazL-2" value="2010" style="shape=step;perimeter=stepPerimeter;whiteSpace=wrap;html=1;fixedSize=1;fontSize=21;fillColor=#dae8fc;strokeColor=#6c8ebf;" vertex="1" parent="1">
          <mxGeometry x="120" y="310" width="140" height="80" as="geometry" />
        </mxCell>
        <mxCell id="ehsIQFj1LvC2KEdBpazL-3" value="2015" style="shape=step;perimeter=stepPerimeter;whiteSpace=wrap;html=1;fixedSize=1;fontSize=21;fillColor=#dae8fc;strokeColor=#6c8ebf;" vertex="1" parent="1">
          <mxGeometry x="260" y="310" width="135" height="80" as="geometry" />
        </mxCell>
        <mxCell id="ehsIQFj1LvC2KEdBpazL-4" value="Present" style="shape=step;perimeter=stepPerimeter;whiteSpace=wrap;html=1;fixedSize=1;fontSize=21;fillColor=#dae8fc;strokeColor=#6c8ebf;" vertex="1" parent="1">
          <mxGeometry x="400" y="310" width="150" height="80" as="geometry" />
        </mxCell>
        <mxCell id="ehsIQFj1LvC2KEdBpazL-5" value="RDBMS" style="rounded=1;whiteSpace=wrap;html=1;fontSize=21;fillColor=#ffe6cc;strokeColor=#d79b00;" vertex="1" parent="1">
          <mxGeometry x="40" y="250" width="125" height="50" as="geometry" />
        </mxCell>
        <mxCell id="ehsIQFj1LvC2KEdBpazL-6" value="NoSQL" style="rounded=1;whiteSpace=wrap;html=1;fontSize=21;fillColor=#ffe6cc;strokeColor=#d79b00;" vertex="1" parent="1">
          <mxGeometry x="200" y="250" width="110" height="50" as="geometry" />
        </mxCell>
        <mxCell id="ehsIQFj1LvC2KEdBpazL-7" value="NewSQL" style="rounded=1;whiteSpace=wrap;html=1;fontSize=21;fillColor=#ffe6cc;strokeColor=#d79b00;" vertex="1" parent="1">
          <mxGeometry x="345" y="250" width="105" height="50" as="geometry" />
        </mxCell>
        <mxCell id="ehsIQFj1LvC2KEdBpazL-8" value="MySQL&lt;div style=&quot;font-size: 21px;&quot;&gt;PostgreSQL&lt;/div&gt;&lt;div style=&quot;font-size: 21px;&quot;&gt;Oracle&lt;/div&gt;&lt;div style=&quot;font-size: 21px;&quot;&gt;DB2&lt;/div&gt;" style="rounded=0;whiteSpace=wrap;html=1;fontSize=21;fillColor=#e1d5e7;strokeColor=#9673a6;" vertex="1" parent="1">
          <mxGeometry x="20" y="440" width="130" height="120" as="geometry" />
        </mxCell>
        <mxCell id="ehsIQFj1LvC2KEdBpazL-9" value="Redis&lt;div style=&quot;font-size: 21px;&quot;&gt;HBase&lt;/div&gt;&lt;div style=&quot;font-size: 21px;&quot;&gt;Cassandra&lt;/div&gt;&lt;div style=&quot;font-size: 21px;&quot;&gt;MongoDB&lt;/div&gt;" style="rounded=0;whiteSpace=wrap;html=1;fontSize=21;fillColor=#e1d5e7;strokeColor=#9673a6;" vertex="1" parent="1">
          <mxGeometry x="180" y="440" width="130" height="120" as="geometry" />
        </mxCell>
        <mxCell id="ehsIQFj1LvC2KEdBpazL-10" value="Google&lt;div style=&quot;font-size: 21px;&quot;&gt;Spanner&lt;/div&gt;&lt;div style=&quot;font-size: 21px;&quot;&gt;Google F1&lt;/div&gt;&lt;div style=&quot;font-size: 21px;&quot;&gt;TiDB&lt;/div&gt;" style="rounded=0;whiteSpace=wrap;html=1;fontSize=21;fillColor=#e1d5e7;strokeColor=#9673a6;" vertex="1" parent="1">
          <mxGeometry x="330" y="440" width="130" height="120" as="geometry" />
        </mxCell>
        <mxCell id="ehsIQFj1LvC2KEdBpazL-11" value="" style="shape=flexArrow;endArrow=classic;html=1;rounded=0;fillColor=#e1d5e7;strokeColor=#9673a6;" edge="1" parent="1">
          <mxGeometry width="50" height="50" relative="1" as="geometry">
            <mxPoint x="89.5" y="440" as="sourcePoint" />
            <mxPoint x="89.5" y="390" as="targetPoint" />
          </mxGeometry>
        </mxCell>
        <mxCell id="ehsIQFj1LvC2KEdBpazL-12" value="" style="shape=flexArrow;endArrow=classic;html=1;rounded=0;fillColor=#e1d5e7;strokeColor=#9673a6;" edge="1" parent="1">
          <mxGeometry width="50" height="50" relative="1" as="geometry">
            <mxPoint x="250" y="440" as="sourcePoint" />
            <mxPoint x="250" y="390" as="targetPoint" />
          </mxGeometry>
        </mxCell>
        <mxCell id="ehsIQFj1LvC2KEdBpazL-13" value="" style="shape=flexArrow;endArrow=classic;html=1;rounded=0;fillColor=#e1d5e7;strokeColor=#9673a6;" edge="1" parent="1">
          <mxGeometry width="50" height="50" relative="1" as="geometry">
            <mxPoint x="395" y="440" as="sourcePoint" />
            <mxPoint x="395" y="390" as="targetPoint" />
          </mxGeometry>
        </mxCell>
      </root>
    </mxGraphModel>
  </diagram>
</mxfile>
